<svg width="14" height="14" viewBox="0 0 14 14" fill="none" xmlns="http://www.w3.org/2000/svg">
<path d="M13.75 7.1125C13.75 6.2125 13.0469 5.73438 12.0625 5.73438H9.22188C9.41875 4.975 9.53125 4.24375 9.53125 3.625C9.53125 1.17813 8.85625 0.671875 8.26562 0.671875C7.87188 0.671875 7.59063 0.7 7.19688 0.953125C7.08438 1.00938 7.02813 1.12187 7 1.23438L6.57812 3.5125C6.12812 4.72188 4.975 5.7625 4.04688 6.46563V12.4844C4.35625 12.4844 4.75 12.6531 5.11562 12.85C5.56562 13.075 6.04375 13.3 6.57812 13.3H10.6C11.4437 13.3 12.0625 12.625 12.0625 12.0344C12.0625 11.9219 12.0625 11.8094 12.0344 11.725C12.5687 11.5281 12.9062 11.0781 12.9062 10.5719C12.9062 10.3188 12.85 10.0937 12.7656 9.925C13.075 9.7 13.4125 9.33438 13.4125 8.88438C13.4125 8.65938 13.3 8.37813 13.1312 8.18125C13.4969 7.9 13.75 7.50625 13.75 7.1125ZM12.8781 7.1125C12.8781 7.64687 12.3156 7.70312 12.2312 7.95625C12.1469 8.2375 12.5687 8.35 12.5687 8.85625C12.5687 9.39063 11.9219 9.39062 11.8375 9.64375C11.725 9.95312 12.0344 10.0656 12.0344 10.5719C12.0344 10.6 12.0344 10.6281 12.0344 10.6562C11.95 11.0781 11.3031 11.1063 11.1906 11.275C11.0781 11.4719 11.2188 11.5844 11.2188 12.0344C11.2188 12.2875 10.9375 12.4562 10.6 12.4562H6.57812C6.26875 12.4562 5.875 12.2875 5.50938 12.0906C5.17188 11.9219 4.83438 11.7531 4.46875 11.6688V7.19688C5.50937 6.40938 6.85938 5.2 7.39375 3.7375C7.39375 3.70937 7.39375 3.68125 7.42188 3.68125L7.81563 1.57188C7.95625 1.51563 8.06875 1.51562 8.29375 1.51562C8.37812 1.51562 8.71562 2.02188 8.71562 3.625C8.71562 4.24375 8.60313 4.94688 8.37813 5.73438H8.26562C8.04063 5.73438 7.84375 5.93125 7.84375 6.15625C7.84375 6.38125 8.04063 6.57812 8.26562 6.57812H12.0625C12.4844 6.57812 12.8781 6.775 12.8781 7.1125Z" fill="#339933"/>
<path d="M12.8781 7.1125C12.8781 7.64687 12.3156 7.70312 12.2312 7.95625C12.1469 8.2375 12.5687 8.35 12.5687 8.85625C12.5687 9.39063 11.9219 9.39062 11.8375 9.64375C11.725 9.95312 12.0344 10.0656 12.0344 10.5719V10.6562C11.95 11.0781 11.3031 11.1063 11.1906 11.275C11.0781 11.4719 11.2188 11.5844 11.2188 12.0344C11.2188 12.2875 10.9375 12.4562 10.6 12.4562H6.57812C6.26875 12.4562 5.875 12.2875 5.50938 12.0906C5.17188 11.9219 4.83438 11.7531 4.46875 11.6688V7.19688C5.50937 6.40938 6.85938 5.2 7.39375 3.7375C7.39375 3.70937 7.39375 3.68125 7.42188 3.68125L7.81563 1.57188C7.95625 1.51563 8.06875 1.51562 8.29375 1.51562C8.37812 1.51562 8.71562 2.02188 8.71562 3.625C8.71562 4.24375 8.60313 4.94688 8.37813 5.73438H8.26562C8.04063 5.73438 7.84375 5.93125 7.84375 6.15625C7.84375 6.38125 8.04063 6.57812 8.26562 6.57812H12.0625C12.4844 6.57812 12.8781 6.775 12.8781 7.1125Z" fill="#339933"/>
<path d="M3.625 13.3281H1.09375C0.615625 13.3281 0.25 12.9625 0.25 12.4844V6.57812C0.25 6.1 0.615625 5.73438 1.09375 5.73438H3.625C4.10313 5.73438 4.46875 6.1 4.46875 6.57812V12.4844C4.46875 12.9625 4.10313 13.3281 3.625 13.3281ZM1.09375 6.57812V12.4844H3.625V6.57812H1.09375Z" fill="#339933"/>
</svg>
